# xmcd
#
# Track frame offsets:
#	150
#	17869
#	32883
#	54392
#	75227
#	88417
#	113876
#	134396
#	150741
#	168777
#	184173
#	201589
#	217966
#	236712
#	252195
#	266836
#	280375
#	295546
#	310981
#	326337
#	348137
#
# Disc length: 4906 seconds
# Revision: 0
# Processed by: cddbd v1.5.2PL0 Copyright (c) Steve Scherf et al.
# Submitted via: dBpowerAMP V12.0
#
DISCID=30132815
DTITLE=Various Artist - Gnadenlos Sommer Folge8 CD2
DYEAR=2004
DGENRE=Discofox
TTITLE0=Guido Hoffmann - Ruf mich an
TTITLE1=Jörg Bausch - Hast du mal Feuer (Single-Version)
TTITLE2=Jeannine - Will dich wiederseh'n (Timewarp Maxi Version)
TTITLE3=Tommy Fischer - Ich bin frei (Maxi Version)
TTITLE4=Matthias Carras - SOS-Lara I'm in Love
TTITLE5=Daniel Beck - Mädchen mit dem blonden Haar (Maxi Version)
TTITLE6=Two4Good feat. Jürgen Drews - Wir zieh'n heut' Abend aufs Dach (Maxi)
TTITLE7=Oliver Frank - Gloria (Reloaded)
TTITLE8=Michael Wendler - Dein Hexenhäuschen brennt (Maxi)
TTITLE9=Modern Talking feat. Eric SIngleton - Don't take away my Heart (Video Edit)
TTITLE10=Dirk Florin - Gott sei Dank (Dj Dance Version)
TTITLE11=Peter Rafael - Ole oh-Mein Herz fliegt dir zu
TTITLE12=Pesch - Dich würd' ich mal gerne (Gnadenlos Sommer Version)
TTITLE13=Oliver Frank - Es darf nicht sein
TTITLE14=Dirk Florin - Durch die Hölle und zurück
TTITLE15=Fantasy - 1 2 3
TTITLE16=Francesco Napoli and Nadine Norell - Mein Herz spielt verrückt
TTITLE17=Joyo - Ti amo ma tu (Single-Edit)
TTITLE18=Peter Rafael - Du bist allein (heute Nacht)
TTITLE19=Oliver Lukas - Verrückt nach deiner Liebe (Las Islas Mix)
TTITLE20=Maiko - Ich lass' dich nie wieder los (Disco Version)
EXTD=
EXTT0=
EXTT1=
EXTT2=
EXTT3=
EXTT4=
EXTT5=
EXTT6=
EXTT7=
EXTT8=
EXTT9=
EXTT10=
EXTT11=
EXTT12=
EXTT13=
EXTT14=
EXTT15=
EXTT16=
EXTT17=
EXTT18=
EXTT19=
EXTT20=
PLAYORDER=
